<svg xmlns="http://www.w3.org/2000/svg" xmlns:xlink="http://www.w3.org/1999/xlink" id="Livello_1" x="0px" y="0px" viewBox="0 0 800 800" style="enable-background:new 0 0 800 800;" xml:space="preserve"><style type="text/css">	.Ombra_x0020_esterna{fill:none;}	.Angoli_x0020_arrotondati_x0020_2_x0020_pt{fill:#FFFFFF;stroke:#000000;stroke-miterlimit:10;}	.Riflessione_x0020_X_x0020_dinamica{fill:none;}	.Smusso_x0020_morbido{fill:url(#SVGID_1_);}	.Crepuscolo{fill:#FFFFFF;}	.Fogliame_GS{fill:#FFDD00;}	.Pompadour_GS{fill-rule:evenodd;clip-rule:evenodd;fill:#51AEE2;}	.st0{clip-path:url(#SVGID_00000072984527919255927410000000994096483411323040_);fill:#EC672D;}	.st1{clip-path:url(#SVGID_00000072984527919255927410000000994096483411323040_);fill:#022F3E;}	.st2{clip-path:url(#SVGID_00000072984527919255927410000000994096483411323040_);fill:#6BB7B5;}</style><linearGradient id="SVGID_1_" gradientUnits="userSpaceOnUse" x1="0" y1="0" x2="0.7071" y2="0.7071">	<stop offset="0" style="stop-color:#E6E6EB"></stop>	<stop offset="0.1738" style="stop-color:#E2E2E6"></stop>	<stop offset="0.352" style="stop-color:#D5D4D8"></stop>	<stop offset="0.5323" style="stop-color:#C0BFC2"></stop>	<stop offset="0.7139" style="stop-color:#A4A2A4"></stop>	<stop offset="0.8949" style="stop-color:#828282"></stop>	<stop offset="1" style="stop-color:#6B6E6E"></stop></linearGradient><g>	<defs>		<rect id="SVGID_00000029750691016369459490000000958123920422163080_" x="39" y="46.8" width="721.1" height="710.5"></rect>	</defs>	<clipPath id="SVGID_00000074412347565681670750000006011900420263939458_">		<use xlink:href="#SVGID_00000029750691016369459490000000958123920422163080_" style="overflow:visible;"></use>	</clipPath>	<path style="clip-path:url(#SVGID_00000074412347565681670750000006011900420263939458_);fill:#EC672D;" d="M203.5,231.2  c0,39.5-32,71.5-71.5,71.5s-71.5-32-71.5-71.5s32-71.5,71.5-71.5S203.5,191.7,203.5,231.2"></path>	<path style="clip-path:url(#SVGID_00000074412347565681670750000006011900420263939458_);fill:#022F3E;" d="M625.2,485.5  c-30.7-13.2-53.4-30.8-78.2-52.6c-60.5-53.2-116.6-120.6-167.7-182.8l-1.1-7.7l68.3-153.6c-0.1-16.4-60.2-54.5-74.5-38.1  c-8.7,10.1-2.7,58.4-4.2,76C356.5,255.8,232.9,395,140,477.2c-16.9,15-47.7,33.6-61.3,48.4c-5.3,5.8-7.8,8.3-6.2,16.9  c127-46.1,238.5-149.2,291.2-274.2c38.2,51.2,72.8,105.3,112.2,155.7c20.4,26.1,47.8,62.2,73.5,90.2c7.7,8.4,15.3,16.1,22.5,22.6  c4.6,4.1,9,7.5,13.5,10.2c8.5,5,17.5,7.6,29.1,8.4c8.5,0.6,20.6,0.3,33.5-0.3c21-1,44.5-3,59.5-4.1c13.2-1,34.3-2.5,47.8-8.1  c1.8-0.7,3.5-1.6,4.9-2.5C759.5,526.9,644.3,493.7,625.2,485.5"></path>	<path style="clip-path:url(#SVGID_00000074412347565681670750000006011900420263939458_);fill:#6BB7B5;" d="M39,608.6  c0,0,200.9-106.9,566.2,8.4c0,0-91.1,94.6-136.5,119.1c-55.3,29.9-107.6,24.1-179.9,7.1c0,0,98.4,4.9,155.2-30  c65.3-40.1,97-79.1,97-79.1S307,556.8,39,608.6"></path></g><g></g><g></g><g></g><g></g><g></g><g></g></svg>